# xmcd CD database file
#
# Track frame offsets:
#	150
#	58285
#	86654
#	106947
#	133524
#	155376
#	176474
#	198097
#	223155
#	237547
#	253674
#	272066
#
# Disc length: 3806 seconds
#
# Revision: 4
# Processed by: cddbd v1.5.2PL0 Copyright (c) Steve Scherf et al.
# Submitted via: CDex 1.51
#
DISCID=ac0edc0c
DTITLE=Various Artist - Latin Jazz - The Essential Album - CD2
DYEAR=2002
DGENRE=Jazz
TTITLE0=Chichi Peralta - Un Dia Mas
TTITLE1=Jorge Dalto - Samba All Day Long
TTITLE2=Jazz Jamaica - Skaravan
TTITLE3=Tito Puente - Oye Como Va
TTITLE4=Marcos Valle - Avantage De Rever Voce
TTITLE5=Pucho - Chitterlings Con Carne
TTITLE6=Cubanisimo - Marie Laveaux
TTITLE7=Azymuth - Valsa For Us
TTITLE8=Kymaera - California Dreaming
TTITLE9=Pete Escovedo - Cabo Frio
TTITLE10=Flora Purim - Humble People
TTITLE11=Ray Barretto - Summertime
EXTD=YEAR: 2002
EXTT0=
EXTT1=
EXTT2=
EXTT3=
EXTT4=
EXTT5=
EXTT6=
EXTT7=
EXTT8=
EXTT9=
EXTT10=
EXTT11=
PLAYORDER=
